<svg version="1" xmlns="http://www.w3.org/2000/svg" width="1333.333" height="1333.333" viewBox="0 0 1000.000000 1000.000000"><path d="M567.9 321.4c-.2.2-3.3.7-6.9 1-14.5 1.5-31.8 6.2-49 13.3-33.5 13.7-60.5 38-70.2 63-4.4 11.4-4.2 17.9.6 20.5 6.8 3.8 11.5.5 18.1-12.8 5.8-11.8 10.7-18.6 20.2-27.9 16.2-15.9 44.8-30.5 68.9-35 4.3-.8 9.3-1.7 10.9-2 6.5-1.4 32.1-1.3 41 .1 53.1 8.5 89.3 44.9 101 101.7 2.3 11.3 5.9 16.7 10.9 16.7 3.7 0 5.8-1.9 7.9-7 1.7-4.2 1.5-10.2-.8-19.5-9.4-38.9-29-69.6-56.9-89-15.3-10.7-36.8-18.8-58.1-22.1-4.5-.7-37-1.5-37.6-1zM356 409c-16.7 3.8-29.8 11-41.5 22.7-13.3 13.3-22.7 33.6-18.2 39.4 2.9 3.8 8.6 4.5 13.2 1.5 1.3-.9 4-4.7 6-8.5 9.8-18.7 29.2-34.4 46.9-38.1 11.4-2.4 28.7.3 39.5 6 30.1 16.1 35.3 57.8 11.7 93.8-6.1 9.3-17.9 24.6-25.3 32.8-3.4 3.8-7.1 8-8.3 9.4-1.2 1.4-5.6 6.1-9.8 10.6-9.2 9.6-15.2 16.1-29.2 31.4-5.8 6.3-12.8 14-15.6 17-2.8 3-9.4 10.2-14.6 16-5.2 5.8-11 12.1-12.7 14-1.8 1.9-3.7 4.5-4.2 5.8-1.5 3.9-1 9.8 1 12.3l1.9 2.4 73.4.3 73.4.2 3.5-2.3c4.3-2.9 6.1-8.5 3.8-12.5-3.2-5.7-2.2-5.7-66.7-5.8-32.5 0-59.2-.4-59.3-.8 0-.4 6.8-8.2 15.3-17.4 8.4-9.2 15.7-17.2 16.3-17.8.5-.6 5.1-5.6 10.2-11 5-5.5 10-10.9 11-12 1.5-1.8 21.8-23.5 27.5-29.5 3.6-3.8 18.6-22.8 22.4-28.4 19.4-28.6 25.7-61 16.9-87-5.9-17.4-21.7-33.5-39.5-40.3-14.8-5.6-35-7.4-49-4.2zM733.4 466.9c-5.1 2.3-8.4 6.4-8.4 10.6 0 4.1 2.2 5.2 12 5.9 4.1.3 8.4.7 9.5 1 16.8 3.6 30 11.6 41.3 25 21.4 25.4 26.2 64.2 11.6 95.1-8.7 18.6-26 35.1-46 43.8-7.4 3.2-23.3 7.4-31.8 8.3-3.4.4-58.7.7-123.1.8l-117 .2-4.7 2.2c-5.9 2.9-7.5 7.2-4.6 12.9 2.7 5.5-1.4 5.3 128.6 5.2 67.2 0 122.1-.4 125.2-1 3-.5 7.3-1.1 9.5-1.4 6.2-.9 15.1-3.4 23.8-6.5 31.7-11.6 55.4-36.1 66.1-68.2 1.7-5.1 2.1-6.8 4.1-17.3 1.3-7 1.3-28.8 0-37-1.1-7-7.5-24.8-11.5-32.2-13.4-25-36.4-42.8-60.8-47.3-11.4-2-19.3-2.1-23.8-.1zM245 471.2c-13.9 3.7-18.8 5.2-23.8 7.6-19.1 8.9-35.8 26.6-44.2 46.8-6.3 15.1-8.2 25.1-8.4 42.9-.1 15.4.2 18.6 2.3 28.5 2.3 10.8 4.3 16.4 9.7 27.5 13.7 27.9 37.4 45.9 68.6 52.1 5 .9 18.7 1.6 21.2 1 7.3-1.8 8.3-15.5 1.4-20-1.3-.8-5.9-1.7-10.8-2.1-4.7-.3-10.3-1.1-12.5-1.6-31.5-7.9-52.3-33-58.1-70.4-.7-4.8-.7-22 .1-25.5.3-1.4.8-4.1 1.1-6 2.6-15.8 12.7-34 24.1-43.6 12.7-10.7 25.9-15.8 44.1-17 4.8-.3 10.2-1 11.9-1.6 7.5-2.2 9.8-11.1 4.2-16.4-3-2.9-3.2-2.9-15.2-3-6.7-.1-13.8.3-15.7.8z"/><path d="M523.5 521.1c-13.4 4.1-24.4 15.5-29 30.2-10 31 5.5 62 33.7 67.7 18.5 3.7 43.8-3.8 44-13 .2-6.3-3.8-7.1-13.7-2.4-9.2 4.3-11.9 5-18.8 5.3-15.5.7-26.8-8.7-31.7-26.1-5.6-20 2-42 17.2-49.9 8.3-4.3 21.4-3.9 28.9.9 9.9 6.3 13.4 6.8 15.9 2.2 2.5-4.7-4.3-11.1-15.7-14.8-7.9-2.7-22.5-2.7-30.8-.1zM592.6 521.2c-1.4 2-1.6 8.2-1.6 47.9 0 42.2.1 45.8 1.8 47.9 1.7 2.1 2.4 2.1 21.9 2.2 13 0 20.8-.4 22.2-1.1 3.7-2 2-9.8-2.2-10.2-.7-.1-7.7-.2-15.7-.3l-14.5-.2-.1-42c-.1-30.4-.4-42.5-1.3-44.2-1.7-3.1-8.3-3.1-10.5 0zM657.7 519.9c-.6.2-2 1-2.9 1.9-1.7 1.4-1.8 4.9-1.8 47.2 0 42.6.1 45.9 1.8 48 1.8 2.2 2.3 2.2 21.8 2.2 22.3-.1 28.7-1.3 37.7-7.3 13.5-8.9 20.7-26.2 19.4-46.7-1.4-22.9-15-40-35.2-44.2-5.5-1.1-37.8-2-40.8-1.1zm43.6 14.5c10.7 5.2 17.4 16.8 18 31.4.6 12.5-2.2 23.3-7.8 30.7-3.3 4.3-10.6 9.2-15.8 10.6-3.2.8-19.6 1.4-27.8 1-1.4-.1-1.6-4-1.6-38.7v-38.6l14.6.4c13.7.3 15 .5 20.4 3.2z"/></svg>